<svg xmlns="http://www.w3.org/2000/svg" viewBox="0 0 260 164" role="img" aria-label="캡슐이 가득 들어 있는 가챠 머신 내부">
  <defs>
    <linearGradient id="bg" x1="0" y1="0" x2="0" y2="1">
      <stop offset="0" stop-color="#dff3fb"/>
      <stop offset="0.55" stop-color="#edf7ed"/>
      <stop offset="1" stop-color="#fbf1de"/>
    </linearGradient>
    <radialGradient id="capGlow" cx="32%" cy="22%" r="70%">
      <stop offset="0" stop-color="#ffffff" stop-opacity="0.8"/>
      <stop offset="0.42" stop-color="#ffffff" stop-opacity="0.18"/>
      <stop offset="1" stop-color="#1c1917" stop-opacity="0.08"/>
    </radialGradient>
    <linearGradient id="glass" x1="0" y1="0" x2="1" y2="1">
      <stop offset="0" stop-color="#ffffff" stop-opacity="0.46"/>
      <stop offset="0.48" stop-color="#ffffff" stop-opacity="0.06"/>
      <stop offset="1" stop-color="#ffffff" stop-opacity="0"/>
    </linearGradient>
    <filter id="shadow" x="-30%" y="-40%" width="160%" height="180%">
      <feDropShadow dx="0" dy="4" stdDeviation="2.4" flood-color="#1c1917" flood-opacity="0.22"/>
    </filter>
    <symbol id="capsule" viewBox="-30 -18 60 36">
      <rect x="-29" y="-17" width="58" height="34" rx="17" fill="#f8fbf5" opacity="0.82"/>
      <path d="M-29-17h29v34h-29z" fill="var(--cap-color)" opacity="0.82"/>
      <path d="M0-15v30" stroke="#fffaf0" stroke-width="2.2" opacity="0.85"/>
      <ellipse cx="-11" cy="-8" rx="11" ry="5" fill="#fff" opacity="0.34"/>
      <ellipse cx="9" cy="7" rx="14" ry="6" fill="#1c1917" opacity="0.07"/>
      <rect x="-29" y="-17" width="58" height="34" rx="17" fill="url(#capGlow)"/>
      <rect x="-29" y="-17" width="58" height="34" rx="17" fill="none" stroke="#1c1917" stroke-width="2.4" opacity="0.62"/>
    </symbol>
  </defs>

  <rect width="260" height="164" rx="16" fill="url(#bg)"/>
  <path d="M6 148c38-21 72-9 109-20 48-15 77-27 139-8v44H6z" fill="#e7dfc7" opacity="0.42"/>

  <g filter="url(#shadow)">
    <use href="#capsule" x="34" y="28" style="--cap-color:#f36f57" transform="rotate(-18 34 28) scale(.92)"/>
    <use href="#capsule" x="82" y="24" style="--cap-color:#6fa8df" transform="rotate(15 82 24) scale(.86)"/>
    <use href="#capsule" x="128" y="25" style="--cap-color:#f5ca4a" transform="rotate(-8 128 25) scale(.9)"/>
    <use href="#capsule" x="178" y="26" style="--cap-color:#76d58d" transform="rotate(18 178 26) scale(.95)"/>
    <use href="#capsule" x="224" y="33" style="--cap-color:#ac78c7" transform="rotate(-24 224 33) scale(.82)"/>

    <use href="#capsule" x="25" y="65" style="--cap-color:#f47a40" transform="rotate(12 25 65) scale(1.02)"/>
    <use href="#capsule" x="68" y="61" style="--cap-color:#8edb88" transform="rotate(-29 68 61) scale(.88)"/>
    <use href="#capsule" x="112" y="64" style="--cap-color:#d15ba1" transform="rotate(21 112 64) scale(.96)"/>
    <use href="#capsule" x="157" y="59" style="--cap-color:#e7d850" transform="rotate(-13 157 59) scale(1.02)"/>
    <use href="#capsule" x="203" y="65" style="--cap-color:#55b7df" transform="rotate(26 203 65) scale(.92)"/>
    <use href="#capsule" x="238" y="74" style="--cap-color:#ef8f62" transform="rotate(-12 238 74) scale(.8)"/>

    <use href="#capsule" x="38" y="104" style="--cap-color:#87dfad" transform="rotate(-8 38 104) scale(.96)"/>
    <use href="#capsule" x="83" y="102" style="--cap-color:#f0c64c" transform="rotate(18 83 102) scale(1.05)"/>
    <use href="#capsule" x="128" y="100" style="--cap-color:#6aa7dc" transform="rotate(-22 128 100) scale(.93)"/>
    <use href="#capsule" x="175" y="101" style="--cap-color:#f36b5f" transform="rotate(9 175 101) scale(1)"/>
    <use href="#capsule" x="217" y="103" style="--cap-color:#98db66" transform="rotate(-18 217 103) scale(.94)"/>

    <use href="#capsule" x="62" y="137" style="--cap-color:#ee7a44" transform="rotate(23 62 137) scale(.9)"/>
    <use href="#capsule" x="107" y="135" style="--cap-color:#a963b8" transform="rotate(-9 107 135) scale(.96)"/>
    <use href="#capsule" x="154" y="137" style="--cap-color:#dccb4e" transform="rotate(5 154 137) scale(.94)"/>
    <use href="#capsule" x="203" y="136" style="--cap-color:#67c8de" transform="rotate(-21 203 136) scale(.9)"/>
  </g>

  <path d="M0 0h260v164H0z" fill="url(#glass)" opacity="0.72"/>
  <path d="M22 0h42L24 164H0V75z" fill="#fff" opacity="0.28"/>
  <path d="M116 0h20L96 164H78z" fill="#fff" opacity="0.14"/>
</svg>
