<svg xmlns="http://www.w3.org/2000/svg" viewBox="0 0 260 164" role="img" aria-label="캡슐이 들어 있는 가챠 머신 내부">
  <defs>
    <linearGradient id="windowBg" x1="0" y1="0" x2="1" y2="1">
      <stop offset="0" stop-color="#d9f1fb"/>
      <stop offset="0.58" stop-color="#eef8f2"/>
      <stop offset="1" stop-color="#fff3de"/>
    </linearGradient>
    <linearGradient id="shine" x1="0" y1="0" x2="1" y2="1">
      <stop offset="0" stop-color="#ffffff" stop-opacity="0.72"/>
      <stop offset="1" stop-color="#ffffff" stop-opacity="0"/>
    </linearGradient>
    <filter id="softShadow" x="-20%" y="-30%" width="140%" height="160%">
      <feDropShadow dx="0" dy="4" stdDeviation="3" flood-color="#1c1917" flood-opacity="0.18"/>
    </filter>
  </defs>

  <rect width="260" height="164" rx="16" fill="url(#windowBg)"/>
  <path d="M28 0h58L42 164H0V58z" fill="url(#shine)" opacity="0.62"/>
  <path d="M116 0h30L102 164H76z" fill="#ffffff" opacity="0.24"/>
  <circle cx="220" cy="46" r="32" fill="#f66b62" opacity="0.82"/>
  <circle cx="214" cy="42" r="17" fill="#ff8b82" opacity="0.42"/>

  <g filter="url(#softShadow)" stroke="#1c1917" stroke-width="4" stroke-linejoin="round">
    <g transform="translate(44 103) rotate(-21)">
      <rect x="-38" y="-19" width="76" height="38" rx="19" fill="#fffaf0"/>
      <path d="M-38-19h38v38h-38z" fill="#ef6f6c"/>
      <line x1="0" y1="-18" x2="0" y2="18" stroke="#fffaf0" stroke-width="3"/>
    </g>
    <g transform="translate(114 64) rotate(8)">
      <rect x="-40" y="-20" width="80" height="40" rx="20" fill="#fffaf0"/>
      <path d="M-40-20h40v40h-40z" fill="#9bdc58"/>
      <line x1="0" y1="-19" x2="0" y2="19" stroke="#fffaf0" stroke-width="3"/>
    </g>
    <g transform="translate(184 99) rotate(18)">
      <rect x="-40" y="-20" width="80" height="40" rx="20" fill="#fffaf0"/>
      <path d="M-40-20h40v40h-40z" fill="#3aaed8"/>
      <line x1="0" y1="-19" x2="0" y2="19" stroke="#fffaf0" stroke-width="3"/>
    </g>
    <g transform="translate(198 48) rotate(-12)">
      <rect x="-31" y="-16" width="62" height="32" rx="16" fill="#fffaf0"/>
      <path d="M-31-16h31v32h-31z" fill="#f7c948"/>
      <line x1="0" y1="-15" x2="0" y2="15" stroke="#fffaf0" stroke-width="3"/>
    </g>
    <g transform="translate(76 40) rotate(-28)">
      <rect x="-28" y="-14" width="56" height="28" rx="14" fill="#fffaf0"/>
      <path d="M-28-14h28v28h-28z" fill="#6aa9ff"/>
      <line x1="0" y1="-13" x2="0" y2="13" stroke="#fffaf0" stroke-width="2.5"/>
    </g>
  </g>

  <path d="M0 0h260v164H0z" fill="none" stroke="#ffffff" stroke-opacity="0.24" stroke-width="2"/>
</svg>
